<svg width="512" height="171" viewBox="0 0 512 171" fill="none" xmlns="http://www.w3.org/2000/svg">
<g clip-path="url(#clip0)">
<path d="M38.6903 61.105L61.9139 5.01035C63.5216 0.91361 68.3446 -1.04457 72.4535 0.558794C76.7404 2.16067 78.5275 6.96927 76.7404 11.0653L31.0079 120.049C29.4009 124.145 24.7566 126.104 20.469 124.501C16.5396 122.72 14.9312 118.09 16.5396 113.994L29.7591 81.5842L0.46213 10.8864C-0.967573 6.79037 0.997548 1.62621 5.28441 0.379899C9.75074 -0.866417 13.8596 1.0925 15.646 5.54406L38.6903 61.105Z" transform="translate(434.572 45.2075)" fill="#A6ABA7"/>
<path d="M43.5881 60.1913C28.5821 60.1913 16.6136 70.8752 16.6136 87.4366C16.6136 103.82 28.5821 115.217 43.5881 115.217C58.4145 115.217 71.2774 105.066 71.2774 87.4366C71.2774 69.6289 56.9863 60.1913 43.5881 60.1913ZM71.4554 8.19198C71.4554 3.73894 75.0288 0 79.6739 0C84.1395 0 87.7115 3.73894 87.7115 8.19198V121.984C87.7115 126.436 84.1395 130.176 79.6739 130.176C75.0288 130.176 71.4554 126.436 71.4554 121.984V116.464C65.9182 125.902 53.9489 131.066 42.3371 131.066C19.4715 131.066 4.74648e-06 113.971 4.74648e-06 87.6147C4.74648e-06 61.0813 19.1141 44.3418 42.1598 44.3418C54.3064 44.3418 65.9182 49.1504 71.4554 58.588V8.19198Z" transform="translate(328.39)" fill="#A6ABA7"/>
<path d="M16.2569 14.2462C21.2594 4.27341 33.228 -3.63968e-07 42.3386 -3.63968e-07C63.0604 -3.63968e-07 74.4935 13.5343 74.4935 36.8625V77.6422C74.4935 82.0945 70.92 85.8342 66.2757 85.8342C61.8094 85.8342 58.2359 82.0945 58.2359 77.6422V37.9315C58.2359 24.0408 51.2698 15.8496 39.8374 15.8496C28.0468 15.8496 16.2569 22.4374 16.2569 40.0678V77.6422C16.2569 82.0945 12.6842 85.8342 8.03986 85.8342C3.57353 85.8342 -1.82557e-07 82.0945 -1.82557e-07 77.6422V9.08202C-1.82557e-07 4.63046 3.57353 0.890759 8.03986 0.890759C12.6842 0.890759 16.2569 4.63046 16.2569 9.08202V14.2462Z" transform="translate(233.715 44.3412)" fill="#A6ABA7"/>
<path d="M38.6902 61.105L61.9139 5.01035C63.5216 0.91361 68.3446 -1.04457 72.4535 0.558794C76.7403 2.16067 78.5275 6.96927 76.7403 11.0653L31.0093 120.049C29.4016 124.145 24.7565 126.104 20.4689 124.501C16.5395 122.72 14.9311 118.09 16.5395 113.994L29.759 81.5842L0.462059 10.8864C-0.967645 6.79037 0.99819 1.62621 5.28431 0.379899C9.75064 -0.866417 13.8595 1.0925 15.6459 5.54406L38.6902 61.105Z" transform="translate(138.398 45.2075)" fill="#A6ABA7"/>
<path d="M102.066 77.9976C100.28 82.6281 97.4218 84.9433 93.4924 84.9433H93.135C89.3835 84.9433 85.9887 82.6281 84.3818 77.9976L63.838 20.3003L44.0082 77.9976C42.4006 82.6281 39.3632 84.9433 35.4345 84.9433H35.0763C31.3256 84.9433 27.9308 82.6281 26.3231 77.9976L0.420147 10.5057C-1.00881 6.58788 1.31297 1.42372 5.7793 0.355558C10.0669 -0.890758 14.1751 1.24631 15.7843 5.69787L35.0763 60.0125L53.6558 7.47864C55.4407 2.49263 58.656 -5.91446e-07 63.4805 -5.91446e-07H64.3733C69.1964 -5.91446e-07 72.2337 2.49263 74.0201 7.47864L92.5996 60.0125L111.712 5.69787C113.321 1.24631 117.607 -0.890758 121.896 0.355558C126.362 1.42372 128.685 6.58788 127.255 10.5057L102.066 77.9976Z" transform="translate(0 45.2319)" fill="#A6ABA7"/>
<path d="M21.5443 10.7231C21.5443 16.6439 16.7207 21.4454 10.7725 21.4454C4.82287 21.4454 3.83597e-06 16.6439 3.83597e-06 10.7231C3.83597e-06 4.80072 4.82287 0 10.7725 0C16.7207 0 21.5443 4.80072 21.5443 10.7231Z" transform="translate(101.416)" fill="#FDCB9C"/>
<path d="M21.5429 10.7231C21.5429 16.6439 16.7207 21.4454 10.7718 21.4454C4.82214 21.4454 -4.56664e-07 16.6439 -4.56664e-07 10.7231C-4.56664e-07 4.80072 4.82214 0 10.7718 0C16.7207 0 21.5429 4.80072 21.5429 10.7231Z" transform="translate(53.6746)" fill="#F9BEBF"/>
<path d="M21.5436 10.7231C21.5436 16.6439 16.7207 21.4454 10.7718 21.4454C4.82287 21.4454 -1.59832e-07 16.6439 -1.59832e-07 10.7231C-1.59832e-07 4.80072 4.82287 0 10.7718 0C16.7207 0 21.5436 4.80072 21.5436 10.7231Z" transform="translate(7.4054)" fill="#5EC6C9"/>
</g>
<defs>
<clipPath id="clip0">
<rect width="512" height="170.267" fill="white"/>
</clipPath>
</defs>
</svg>
